<svg xmlns="http://www.w3.org/2000/svg" xmlns:xlink="http://www.w3.org/1999/xlink" width="500" zoomAndPan="magnify" viewBox="0 0 375 374.999991" height="500" preserveAspectRatio="xMidYMid meet" version="1.0"><defs><g/><clipPath id="027c06c7a2"><path d="M 85.714844 99.648438 L 114 99.648438 L 114 128 L 85.714844 128 Z M 85.714844 99.648438 " clip-rule="nonzero"/></clipPath><clipPath id="0b50116d9d"><path d="M 86 100 L 119.464844 100 L 119.464844 144 L 86 144 Z M 86 100 " clip-rule="nonzero"/></clipPath><clipPath id="2cc7e9cec2"><path d="M 96 142 L 110 142 L 110 146.148438 L 96 146.148438 Z M 96 142 " clip-rule="nonzero"/></clipPath></defs><g clip-path="url(#027c06c7a2)"><path fill="#ffbd59" d="M 113.945312 113.746094 C 113.945312 114.667969 113.855469 115.585938 113.675781 116.496094 C 113.492188 117.402344 113.226562 118.285156 112.871094 119.136719 C 112.519531 119.992188 112.085938 120.804688 111.570312 121.574219 C 111.054688 122.34375 110.472656 123.058594 109.816406 123.710938 C 109.164062 124.367188 108.449219 124.949219 107.679688 125.464844 C 106.910156 125.980469 106.097656 126.414062 105.242188 126.765625 C 104.390625 127.121094 103.507812 127.386719 102.601562 127.570312 C 101.691406 127.75 100.773438 127.839844 99.851562 127.839844 C 98.925781 127.839844 98.007812 127.75 97.101562 127.570312 C 96.191406 127.386719 95.3125 127.121094 94.457031 126.765625 C 93.601562 126.414062 92.789062 125.980469 92.019531 125.464844 C 91.25 124.949219 90.535156 124.367188 89.882812 123.710938 C 89.226562 123.058594 88.644531 122.34375 88.128906 121.574219 C 87.617188 120.804688 87.179688 119.992188 86.828125 119.136719 C 86.472656 118.285156 86.207031 117.402344 86.023438 116.496094 C 85.84375 115.585938 85.753906 114.667969 85.753906 113.746094 C 85.753906 112.820312 85.84375 111.902344 86.023438 110.996094 C 86.207031 110.085938 86.472656 109.207031 86.828125 108.351562 C 87.179688 107.496094 87.617188 106.683594 88.128906 105.914062 C 88.644531 105.144531 89.226562 104.429688 89.882812 103.777344 C 90.535156 103.121094 91.25 102.539062 92.019531 102.023438 C 92.789062 101.511719 93.601562 101.074219 94.457031 100.722656 C 95.3125 100.367188 96.191406 100.101562 97.101562 99.917969 C 98.007812 99.738281 98.925781 99.648438 99.851562 99.648438 C 100.773438 99.648438 101.691406 99.738281 102.601562 99.917969 C 103.507812 100.101562 104.390625 100.367188 105.242188 100.722656 C 106.097656 101.074219 106.910156 101.511719 107.679688 102.023438 C 108.449219 102.539062 109.164062 103.121094 109.816406 103.777344 C 110.472656 104.429688 111.054688 105.144531 111.570312 105.914062 C 112.085938 106.683594 112.519531 107.496094 112.871094 108.351562 C 113.226562 109.207031 113.492188 110.085938 113.675781 110.996094 C 113.855469 111.902344 113.945312 112.820312 113.945312 113.746094 Z M 113.945312 113.746094 " fill-opacity="1" fill-rule="nonzero"/></g><g clip-path="url(#0b50116d9d)"><path fill="#04182d" d="M 110.925781 143.429688 L 95.066406 143.429688 C 94.796875 143.429688 94.578125 143.210938 94.578125 142.941406 L 94.578125 133.886719 C 94.578125 132.328125 93.859375 130.859375 92.601562 129.859375 C 88.085938 126.273438 85.757812 120.695312 86.371094 114.933594 C 87.210938 107.019531 93.847656 100.632812 101.808594 100.082031 C 106.5 99.757812 110.976562 101.339844 114.402344 104.535156 C 117.78125 107.6875 119.71875 112.144531 119.71875 116.765625 C 119.71875 121.898438 117.40625 126.679688 113.375 129.871094 C 112.128906 130.863281 111.414062 132.324219 111.414062 133.886719 L 111.414062 142.941406 C 111.414062 143.210938 111.195312 143.429688 110.925781 143.429688 Z M 95.554688 142.453125 L 110.4375 142.453125 L 110.4375 133.886719 C 110.4375 132.027344 111.289062 130.285156 112.769531 129.109375 C 116.566406 126.101562 118.742188 121.601562 118.742188 116.765625 C 118.742188 112.414062 116.917969 108.21875 113.738281 105.25 C 110.511719 102.238281 106.304688 100.753906 101.875 101.054688 C 94.382812 101.574219 88.132812 107.585938 87.339844 115.039062 C 86.761719 120.464844 88.957031 125.71875 93.207031 129.097656 C 94.699219 130.28125 95.554688 132.027344 95.554688 133.886719 Z M 95.554688 142.453125 " fill-opacity="1" fill-rule="nonzero"/></g><g clip-path="url(#2cc7e9cec2)"><path fill="#04182d" d="M 102.878906 146.230469 C 99.414062 146.230469 96.703125 144.785156 96.703125 142.941406 C 96.703125 142.671875 96.921875 142.453125 97.191406 142.453125 C 97.457031 142.453125 97.675781 142.671875 97.675781 142.941406 C 97.675781 144.035156 99.8125 145.253906 102.878906 145.253906 C 105.941406 145.253906 108.078125 144.035156 108.078125 142.941406 C 108.078125 142.671875 108.296875 142.453125 108.566406 142.453125 C 108.835938 142.453125 109.054688 142.671875 109.054688 142.941406 C 109.054688 144.785156 106.339844 146.230469 102.878906 146.230469 Z M 102.878906 146.230469 " fill-opacity="1" fill-rule="nonzero"/></g><path fill="#04182d" d="M 93.179688 134.375 C 92.925781 134.375 92.710938 134.179688 92.691406 133.921875 C 92.675781 133.652344 92.878906 133.421875 93.144531 133.402344 L 112.777344 132.042969 C 113.054688 132.027344 113.28125 132.226562 113.300781 132.496094 C 113.316406 132.761719 113.113281 132.996094 112.847656 133.015625 L 93.214844 134.375 C 93.203125 134.375 93.191406 134.375 93.179688 134.375 Z M 93.179688 134.375 " fill-opacity="1" fill-rule="nonzero"/><path fill="#04182d" d="M 93.179688 137.496094 C 92.925781 137.496094 92.710938 137.300781 92.691406 137.042969 C 92.675781 136.773438 92.878906 136.539062 93.144531 136.519531 L 112.777344 135.160156 C 113.054688 135.148438 113.28125 135.34375 113.300781 135.613281 C 113.316406 135.882812 113.113281 136.117188 112.847656 136.132812 L 93.214844 137.496094 C 93.203125 137.496094 93.191406 137.496094 93.179688 137.496094 Z M 93.179688 137.496094 " fill-opacity="1" fill-rule="nonzero"/><path fill="#04182d" d="M 93.179688 140.613281 C 92.925781 140.613281 92.710938 140.417969 92.691406 140.160156 C 92.675781 139.890625 92.878906 139.660156 93.144531 139.640625 L 112.777344 138.28125 C 113.054688 138.261719 113.28125 138.464844 113.300781 138.734375 C 113.316406 139 113.113281 139.234375 112.847656 139.253906 L 93.214844 140.613281 C 93.203125 140.613281 93.191406 140.613281 93.179688 140.613281 Z M 93.179688 140.613281 " fill-opacity="1" fill-rule="nonzero"/><g fill="#ffde59" fill-opacity="1"><g transform="translate(242.71912, 244.143107)"><g><path d="M -85.046875 -16.769531 C -85.046875 -8.863281 -80.015625 -4.792969 -72.351562 -4.792969 L -11.5 -4.792969 C -4.074219 -4.792969 1.199219 -8.863281 1.199219 -16.769531 C 1.199219 -24.675781 -4.074219 -28.75 -11.5 -28.75 L -72.351562 -28.75 C -80.015625 -28.75 -85.046875 -24.675781 -85.046875 -16.769531 Z M -85.046875 -16.769531 "/></g></g></g><g fill="#5ce1e6" fill-opacity="1"><g transform="translate(116.999451, 224.597146)"><g><path d="M 16.769531 -85.046875 C 8.863281 -85.046875 4.792969 -80.015625 4.792969 -72.351562 L 4.792969 -11.5 C 4.792969 -4.074219 8.863281 1.199219 16.769531 1.199219 C 24.675781 1.199219 28.75 -4.074219 28.75 -11.5 L 28.75 -72.351562 C 28.75 -80.015625 24.675781 -85.046875 16.769531 -85.046875 Z M 16.769531 -85.046875 "/></g></g></g><g fill="#ff8bd2" fill-opacity="1"><g transform="translate(317.973133, 198.969903)"><g><path d="M -21.472656 -83.984375 C -28.605469 -80.582031 -30.117188 -74.285156 -26.816406 -67.367188 L -0.625 -12.441406 C 2.570312 -5.738281 8.515625 -2.734375 15.652344 -6.136719 C 22.789062 -9.539062 24.195312 -16.050781 21 -22.753906 L -5.195312 -77.679688 C -8.492188 -84.597656 -14.335938 -87.386719 -21.472656 -83.984375 Z M -21.472656 -83.984375 "/></g></g></g><path stroke-linecap="butt" transform="matrix(0.734788, 0, 0, 0.734788, 0.0000045, 120.436516)" fill="none" stroke-linejoin="miter" d="M 44.80458 42.982483 C 19.393341 42.982483 7.474513 56.400468 7.474513 75.831028 C 7.474513 93.730535 15.820883 103.320886 31.354699 107.472806 L 47.797578 111.667255 C 54.357718 113.453484 55.272097 116.733554 55.272097 119.141774 C 55.272097 122.129456 53.156266 125.122453 47.175587 125.122453 C 38.829218 125.122453 31.647087 123.29901 23.295402 117.940322 C 20.892498 116.441166 18.521491 116.154093 16.442873 116.154093 C 8.968354 116.154093 3.572453 121.220392 3.572453 128.694912 C 3.572453 131.682593 4.773904 134.962663 7.474513 137.663272 C 16.442873 146.594418 31.06231 150.496479 47.797578 150.496479 C 75.250222 150.496479 88.115326 136.169431 88.115326 117.647934 C 88.115326 99.126436 80.646123 90.450465 64.203244 85.963627 L 47.797578 81.806391 C 41.816899 80.31255 40.323058 77.324869 40.323058 74.337188 C 40.323058 70.764729 43.31074 68.356509 47.797578 68.356509 C 53.77294 68.356509 58.222565 70.142738 64.203244 74.916649 C 66.606148 76.740092 69.306756 77.324869 71.677763 77.324869 C 80.024133 77.324869 84.218582 72.25857 84.218582 64.78405 C 84.218582 61.791053 83.341416 58.803372 81.225584 56.400468 C 74.665444 48.63356 59.424017 42.982483 44.80458 42.982483 Z M 145.136446 42.982483 C 144.844057 42.982483 144.695205 42.982483 144.402816 42.982483 C 138.135065 42.982483 132.446775 46.698478 129.932231 52.53562 L 94.967855 126.908682 C 93.766403 129.274373 93.181626 131.682593 93.181626 134.0536 C 93.181626 143.02196 100.656145 150.496479 109.624505 150.496479 C 116.477034 150.496479 122.165323 147.503482 124.53633 140.943342 L 128.581927 129.603975 L 160.994547 129.603975 L 164.859395 140.943342 C 167.262299 147.503482 172.913376 150.496479 179.803117 150.496479 C 188.73958 150.496479 196.208783 143.02196 196.208783 134.0536 C 196.208783 131.682593 195.629322 129.274373 194.422554 126.908682 L 159.500707 52.53562 C 156.800098 46.847331 151.404197 43.274872 145.136446 42.982483 Z M 152.169724 104.192736 L 137.369538 104.192736 L 144.844057 83.013159 Z M 215.027986 42.982483 C 206.389228 42.982483 199.207097 50.127401 199.207097 58.510983 C 199.207097 61.211592 199.786558 63.582598 201.285715 65.985502 L 230.556486 116.154093 L 230.556486 133.176434 C 230.556486 143.638634 235.952387 150.496479 246.999365 150.496479 C 258.046343 150.496479 263.405031 143.638634 263.405031 133.176434 L 263.405031 116.154093 L 292.681117 65.985502 C 294.174958 63.582598 294.759736 60.88199 294.759736 58.218594 C 294.759736 49.835012 287.614818 42.982483 278.938847 42.982483 C 272.373391 42.982483 267.59948 45.970164 265.19126 51.036464 L 246.999365 89.573299 L 228.770256 51.036464 C 226.367352 45.970164 221.588126 42.982483 215.027986 42.982483 Z M 318.650553 44.476324 C 307.603575 44.476324 302.244887 51.328852 302.244887 61.791053 L 302.244887 131.682593 C 302.244887 142.144793 307.603575 149.002638 318.650553 149.002638 L 370.350198 149.002638 C 377.202726 149.002638 382.891016 143.314348 382.891016 136.456504 C 382.891016 129.603975 377.202726 123.623296 370.350198 123.623296 L 335.093432 123.623296 L 335.093432 109.588637 L 355.401159 109.588637 C 362.253688 109.588637 367.941978 103.607958 367.941978 96.718216 C 367.941978 89.865688 362.253688 83.885009 355.401159 83.885009 L 335.093432 83.885009 L 335.093432 69.85035 L 370.350198 69.85035 C 377.202726 69.85035 382.891016 63.869671 382.891016 57.017142 C 382.891016 50.127401 377.202726 44.476324 370.350198 44.476324 Z M 413.948016 42.982483 C 405.564434 42.982483 398.711905 49.250234 397.797526 57.309531 L 390.328323 132.559759 C 390.328323 133.176434 390.035934 133.761211 390.035934 134.377885 C 390.035934 143.638634 396.925676 150.496479 406.186424 150.496479 C 414.825182 150.496479 421.385322 144.5158 422.299702 135.877042 L 424.994994 102.114118 L 435.425298 127.195755 C 437.541129 132.559759 442.31504 135.54744 449.167568 135.54744 C 455.764921 135.54744 460.836537 132.559759 462.915155 127.195755 L 473.377356 102.114118 L 476.072648 135.877042 C 476.949814 144.5158 483.509954 150.496479 492.185925 150.496479 C 501.446674 150.496479 508.304519 143.638634 508.304519 134.377885 C 508.304519 133.761211 508.01213 133.176434 508.01213 132.559759 L 500.537611 57.309531 C 499.660445 48.963162 492.478314 42.982483 484.131945 42.982483 C 478.443655 42.982483 473.084967 45.970164 470.676747 51.036464 L 449.167568 94.931987 L 427.65839 51.036464 C 425.287383 45.970164 420.221084 42.982483 413.948016 42.982483 Z M 413.948016 42.982483 " stroke="#000000" stroke-width="2.706624" stroke-opacity="1" stroke-miterlimit="4"/></svg>